<svg width="48" height="48" viewBox="0 0 48 48" fill="none" xmlns="http://www.w3.org/2000/svg">
<rect width="48" height="48" fill="black"/>
<path d="M13 16C15.7614 16 18 13.7614 18 11C18 8.23858 15.7614 6 13 6C10.2386 6 8 8.23858 8 11C8 13.7614 10.2386 16 13 16Z" fill="white"/>
<path d="M13 29C15.7614 29 18 26.7614 18 24C18 21.2386 15.7614 19 13 19C10.2386 19 8 21.2386 8 24C8 26.7614 10.2386 29 13 29Z" fill="white"/>
<path d="M13 42C15.7614 42 18 39.7614 18 37C18 34.2386 15.7614 32 13 32C10.2386 32 8 34.2386 8 37C8 39.7614 10.2386 42 13 42Z" fill="white"/>
</svg>
