<svg width="48" height="48" viewBox="0 0 48 48" fill="none" xmlns="http://www.w3.org/2000/svg">
<rect width="48" height="48" fill="url(#paint0_linear_164_181)"/>
<path d="M13 32C15.7614 32 18 34.2386 18 37C18 39.7614 15.7614 42 13 42C10.2386 42 8 39.7614 8 37C8 34.2386 10.2386 32 13 32ZM13 19C15.7614 19 18 21.2386 18 24C18 26.7614 15.7614 29 13 29C10.2386 29 8 26.7614 8 24C8 21.2386 10.2386 19 13 19ZM13 6C15.7614 6 18 8.23858 18 11C18 13.7614 15.7614 16 13 16C10.2386 16 8 13.7614 8 11C8 8.23858 10.2386 6 13 6Z" fill="white"/>
<defs>
<linearGradient id="paint0_linear_164_181" x1="24" y1="0" x2="24" y2="48" gradientUnits="userSpaceOnUse">
<stop stop-color="#2ECF81"/>
<stop offset="1" stop-color="#0BB764"/>
</linearGradient>
</defs>
</svg>
