<svg width="48" height="48" viewBox="0 0 48 48" fill="none" xmlns="http://www.w3.org/2000/svg">
<rect width="48" height="48" fill="url(#paint0_linear_98_780)"/>
<path d="M20.599 17.7847C20.9203 12.8435 25.0218 9 29.9734 9H32.2489C36.1805 9 39.3677 12.1872 39.3677 16.1188C39.3677 20.1564 36.0134 23.3857 31.9787 23.2325L27.5075 23.0627C26.3227 23.0177 25.1382 23.1573 23.9964 23.4766L22.6681 23.8481C21.4424 24.1909 20.2456 23.2201 20.3282 21.9501L20.599 17.7847Z" fill="#EAEAEA" style="fill:#EAEAEA;fill:color(display-p3 0.9176 0.9176 0.9176);fill-opacity:1;"/>
<path d="M27.7687 30.5831C27.4474 35.5243 23.3459 39.3678 18.3942 39.3678L16.1188 39.3678C12.1872 39.3678 9 36.1806 9 32.249C9 28.2114 12.3543 24.9821 16.389 25.1353L20.8602 25.3051C22.0449 25.3501 23.2295 25.2105 24.3713 24.8912L25.6996 24.5197C26.9252 24.1769 28.122 25.1477 28.0395 26.4177L27.7687 30.5831Z" fill="#EAEAEA" style="fill:#EAEAEA;fill:color(display-p3 0.9176 0.9176 0.9176);fill-opacity:1;"/>
<defs>
<linearGradient id="paint0_linear_98_780" x1="24" y1="0" x2="24" y2="48" gradientUnits="userSpaceOnUse">
<stop stop-color="#2ECF81" style="stop-color:#2ECF81;stop-color:color(display-p3 0.1796 0.8111 0.5077);stop-opacity:1;"/>
<stop offset="1" stop-color="#0BB764" style="stop-color:#0BB764;stop-color:color(display-p3 0.0429 0.7179 0.3936);stop-opacity:1;"/>
</linearGradient>
</defs>
</svg>
